<svg width="136" height="99" viewBox="0 0 136 99" fill="none" xmlns="http://www.w3.org/2000/svg">
<mask id="mask0_732_7" style="mask-type:alpha" maskUnits="userSpaceOnUse" x="16" y="0" width="104" height="47">
<path d="M55.1422 7.54004C46.2294 -1.37272 31.779 -1.37272 22.8662 7.54004C13.9534 16.4528 13.9534 30.9032 22.8662 39.816C31.779 48.7288 46.2294 48.7288 55.1422 39.816L61.4389 33.5193C62.3448 32.6134 62.3448 31.1447 61.4389 30.2388C60.533 29.333 59.0643 29.333 58.1584 30.2388L51.8617 36.5355C44.7607 43.6366 33.2477 43.6366 26.1467 36.5355C19.0457 29.4345 19.0457 17.9215 26.1467 10.8205C33.2477 3.7195 44.7607 3.7195 51.8617 10.8205L64.7184 23.6772L64.7191 23.6766L67.999 26.9565L71.2801 23.6754L68.001 20.3963L67.9997 20.3976L55.1422 7.54004Z" fill="black"/>
<path d="M74.5614 13.8359C73.6555 14.7418 73.6555 16.2105 74.5614 17.1163C75.4673 18.0222 76.936 18.0222 77.8419 17.1163L84.1377 10.8205C91.2387 3.7195 102.752 3.7195 109.853 10.8205C116.954 17.9215 116.954 29.4345 109.853 36.5355C102.752 43.6366 91.2387 43.6366 84.1377 36.5355L71.2805 23.6784L68.0002 26.9587L80.8572 39.816C89.77 48.7288 104.22 48.7288 113.133 39.816C122.046 30.9032 122.046 16.4528 113.133 7.54004C104.22 -1.37272 89.77 -1.37272 80.8572 7.54004L74.5614 13.8359Z" fill="black"/>
</mask>
<g mask="url(#mask0_732_7)">
<path d="M109.637 -17.8177L130.456 3.00102L47.1813 86.2758L26.3626 65.4571L109.637 -17.8177Z" fill="#F9B710"/>
<path d="M88.8187 -38.6364L109.637 -17.8177L26.3626 65.4571L5.5439 44.6384L88.8187 -38.6364Z" fill="#4B90B3"/>
<path d="M130.456 3.00102L151.275 23.8197L68 107.095L47.1813 86.2758L130.456 3.00102Z" fill="#FA8522"/>
<path d="M68 -59.4551L88.8187 -38.6364L5.5439 44.6384L-15.2748 23.8197L68 -59.4551Z" fill="#D91A1A"/>
</g>
<path d="M11.2271 68.5552C10.249 68.5552 9.37173 68.2835 8.59543 67.74C7.81913 67.1966 7.22914 66.4824 6.82547 65.5974C6.74784 65.4577 6.70902 65.3335 6.70902 65.2248C6.70902 65.023 6.78665 64.8677 6.94191 64.759C7.09717 64.6348 7.25243 64.5727 7.40769 64.5727C7.56295 64.5727 7.68716 64.6115 7.78032 64.6892C7.889 64.7668 7.98216 64.86 8.05979 64.9686C8.35478 65.6207 8.78175 66.1486 9.34068 66.5523C9.89962 66.956 10.5284 67.1578 11.2271 67.1578C11.9413 67.1578 12.5701 67.0103 13.1135 66.7153C13.6569 66.4048 14.0761 65.9778 14.3711 65.4344C14.6816 64.891 14.8369 64.27 14.8369 63.5713V52.7186C14.8369 52.5323 14.9068 52.3693 15.0465 52.2296C15.2018 52.0898 15.3803 52.0199 15.5821 52.0199C15.7995 52.0199 15.9703 52.0898 16.0945 52.2296C16.2342 52.3693 16.3041 52.5323 16.3041 52.7186V63.5713C16.3041 64.5339 16.0867 65.3956 15.652 66.1564C15.2173 66.9016 14.6195 67.4916 13.8588 67.9264C13.098 68.3456 12.2208 68.5552 11.2271 68.5552ZM29.2357 56.4914C29.4375 56.4914 29.6006 56.5613 29.7248 56.701C29.8645 56.8408 29.9344 57.0038 29.9344 57.1901V63.7576C29.9344 65.2947 29.4996 66.4669 28.6302 67.2743C27.7607 68.0816 26.5885 68.4853 25.1135 68.4853C23.6541 68.4853 22.4896 68.0816 21.6202 67.2743C20.7663 66.4669 20.3393 65.2947 20.3393 63.7576V57.1901C20.3393 57.0038 20.4014 56.8408 20.5256 56.701C20.6653 56.5613 20.8361 56.4914 21.038 56.4914C21.2398 56.4914 21.4028 56.5613 21.527 56.701C21.6668 56.8408 21.7366 57.0038 21.7366 57.1901V63.7576C21.7366 64.8755 22.0316 65.7294 22.6216 66.3194C23.2271 66.8939 24.0578 67.1811 25.1135 67.1811C26.1848 67.1811 27.0232 66.8939 27.6288 66.3194C28.2343 65.7294 28.537 64.8755 28.537 63.7576V57.1901C28.537 57.0038 28.5991 56.8408 28.7233 56.701C28.8475 56.5613 29.0183 56.4914 29.2357 56.4914ZM39.2112 56.1421C40.2359 56.1421 41.0511 56.3517 41.6566 56.7709C42.2776 57.1746 42.7201 57.7335 42.984 58.4477C43.2635 59.1464 43.4032 59.9227 43.4032 60.7766V67.6236C43.4032 67.8099 43.3334 67.9729 43.1936 68.1127C43.0539 68.2524 42.8909 68.3223 42.7046 68.3223C42.4872 68.3223 42.3164 68.2524 42.1922 68.1127C42.068 67.9729 42.0059 67.8099 42.0059 67.6236V60.8465C42.0059 60.2254 41.905 59.6587 41.7031 59.1464C41.5013 58.634 41.1675 58.2226 40.7017 57.9121C40.2515 57.6016 39.6537 57.4463 38.9085 57.4463C38.2408 57.4463 37.6043 57.6016 36.9988 57.9121C36.4088 58.2226 35.9275 58.634 35.5548 59.1464C35.1822 59.6587 34.9959 60.2254 34.9959 60.8465V67.6236C34.9959 67.8099 34.926 67.9729 34.7863 68.1127C34.6466 68.2524 34.4835 68.3223 34.2972 68.3223C34.0799 68.3223 33.9091 68.2524 33.7849 68.1127C33.6607 67.9729 33.5986 67.8099 33.5986 67.6236V57.1901C33.5986 57.0038 33.6607 56.8408 33.7849 56.701C33.9246 56.5613 34.0954 56.4914 34.2972 56.4914C34.4991 56.4914 34.6621 56.5613 34.7863 56.701C34.926 56.8408 34.9959 57.0038 34.9959 57.1901V59.1464L34.4603 59.9848C34.4913 59.488 34.6466 59.0144 34.926 58.5642C35.221 58.0984 35.5937 57.6869 36.0439 57.3298C36.4942 56.9572 36.991 56.67 37.5344 56.4682C38.0933 56.2508 38.6523 56.1421 39.2112 56.1421ZM46.294 56.4682H51.7203C51.9066 56.4682 52.0619 56.538 52.1861 56.6778C52.3103 56.802 52.3724 56.9572 52.3724 57.1435C52.3724 57.3143 52.3103 57.4618 52.1861 57.586C52.0619 57.7102 51.9066 57.7723 51.7203 57.7723H46.294C46.1077 57.7723 45.9447 57.7102 45.8049 57.586C45.6807 57.4463 45.6186 57.291 45.6186 57.1202C45.6186 56.9339 45.6807 56.7787 45.8049 56.6545C45.9447 56.5303 46.1077 56.4682 46.294 56.4682ZM48.6928 53.1844C48.8946 53.1844 49.0576 53.2543 49.1818 53.394C49.3216 53.5337 49.3914 53.6968 49.3914 53.8831V65.5742C49.3914 66.0089 49.4458 66.3349 49.5545 66.5523C49.6787 66.7697 49.8339 66.9172 50.0202 66.9948C50.2065 67.0569 50.3929 67.0879 50.5792 67.0879C50.7034 67.0879 50.8121 67.0724 50.9052 67.0414C51.0139 66.9948 51.1303 66.9715 51.2546 66.9715C51.3943 66.9715 51.5107 67.0258 51.6039 67.1345C51.7126 67.2432 51.7669 67.3829 51.7669 67.5537C51.7669 67.7711 51.6427 67.9574 51.3943 68.1127C51.1459 68.2524 50.8509 68.3223 50.5093 68.3223C50.3696 68.3223 50.16 68.3145 49.8805 68.299C49.601 68.2679 49.3138 68.1825 49.0188 68.0428C48.7238 67.8875 48.4754 67.6236 48.2736 67.251C48.0872 66.8783 47.9941 66.3427 47.9941 65.644V53.8831C47.9941 53.6968 48.0562 53.5337 48.1804 53.394C48.3201 53.2543 48.4909 53.1844 48.6928 53.1844ZM65.9263 62.3603C65.9263 63.5403 65.6701 64.6038 65.1577 65.5509C64.6454 66.4824 63.9467 67.2199 63.0617 67.7633C62.1767 68.2912 61.1676 68.5552 60.0342 68.5552C58.9318 68.5552 57.9304 68.2912 57.0299 67.7633C56.1449 67.2199 55.4385 66.4824 54.9106 65.5509C54.3982 64.6038 54.142 63.5403 54.142 62.3603C54.142 61.1648 54.3982 60.1012 54.9106 59.1697C55.4385 58.2381 56.1449 57.5006 57.0299 56.9572C57.9304 56.4138 58.9318 56.1421 60.0342 56.1421C61.1676 56.1421 62.1767 56.4138 63.0617 56.9572C63.9467 57.5006 64.6454 58.2381 65.1577 59.1697C65.6701 60.1012 65.9263 61.1648 65.9263 62.3603ZM64.5289 62.3603C64.5289 61.4132 64.3349 60.5748 63.9467 59.8451C63.5586 59.0998 63.0229 58.5176 62.3398 58.0984C61.6721 57.6637 60.9036 57.4463 60.0342 57.4463C59.1957 57.4463 58.435 57.6637 57.7518 58.0984C57.0687 58.5176 56.5253 59.0998 56.1216 59.8451C55.7334 60.5748 55.5394 61.4132 55.5394 62.3603C55.5394 63.3074 55.7334 64.1458 56.1216 64.8755C56.5253 65.6052 57.0687 66.1874 57.7518 66.6222C58.435 67.0414 59.1957 67.251 60.0342 67.251C60.9036 67.251 61.6721 67.0414 62.3398 66.6222C63.0229 66.1874 63.5586 65.6052 63.9467 64.8755C64.3349 64.1458 64.5289 63.3074 64.5289 62.3603ZM68.2206 66.4359C68.0964 66.2495 68.0343 66.071 68.0343 65.9002C68.0498 65.7139 68.1507 65.5664 68.3371 65.4577C68.4613 65.349 68.601 65.3025 68.7563 65.318C68.927 65.3335 69.0823 65.4111 69.222 65.5509C69.6412 66.0943 70.1458 66.5368 70.7358 66.8783C71.3413 67.2044 72.0555 67.3674 72.8784 67.3674C73.3131 67.3674 73.7401 67.2975 74.1593 67.1578C74.594 67.0026 74.9511 66.7774 75.2306 66.4824C75.5101 66.1719 75.6498 65.7838 75.6498 65.318C75.6498 64.8367 75.5101 64.4485 75.2306 64.1535C74.9511 63.8585 74.5863 63.6256 74.136 63.4549C73.7013 63.2841 73.2355 63.1366 72.7387 63.0124C72.2108 62.8726 71.6984 62.7174 71.2016 62.5466C70.7048 62.3603 70.2623 62.1351 69.8741 61.8712C69.5015 61.5917 69.1987 61.2579 68.9659 60.8698C68.733 60.4816 68.6165 60.0081 68.6165 59.4491C68.6165 58.7971 68.7951 58.2226 69.1522 57.7258C69.5093 57.2289 69.9906 56.8408 70.5961 56.5613C71.2171 56.2818 71.9158 56.1421 72.6921 56.1421C73.0803 56.1421 73.4995 56.1964 73.9497 56.3051C74.4 56.3983 74.8425 56.5613 75.2772 56.7942C75.7119 57.0271 76.1001 57.3454 76.4416 57.749C76.5814 57.8888 76.6512 58.0518 76.6512 58.2381C76.6512 58.4089 76.5736 58.5642 76.4183 58.7039C76.2941 58.7971 76.1466 58.8436 75.9759 58.8436C75.8206 58.8436 75.6886 58.7815 75.5799 58.6573C75.2073 58.2381 74.7648 57.9198 74.2525 57.7025C73.7401 57.4851 73.1889 57.3764 72.5989 57.3764C72.1487 57.3764 71.7217 57.4541 71.318 57.6093C70.9299 57.749 70.6039 57.9664 70.3399 58.2614C70.076 58.5564 69.944 58.9446 69.944 59.4259C69.975 59.8761 70.1303 60.241 70.4098 60.5204C70.7048 60.7999 71.0852 61.0328 71.5509 61.2191C72.0322 61.4054 72.5679 61.5762 73.1579 61.7315C73.6547 61.8557 74.1283 62.0032 74.5785 62.174C75.0443 62.3447 75.448 62.5621 75.7895 62.8261C76.1466 63.0745 76.4261 63.3928 76.6279 63.7809C76.8453 64.1691 76.954 64.6581 76.954 65.2481C76.954 65.9313 76.7599 66.5212 76.3718 67.0181C75.9991 67.5149 75.4945 67.8953 74.858 68.1592C74.2214 68.4232 73.515 68.5552 72.7387 68.5552C71.9003 68.5552 71.0852 68.3921 70.2933 68.0661C69.517 67.74 68.8261 67.1966 68.2206 66.4359ZM91.84 56.3284C92.8958 56.3284 93.8274 56.5924 94.6347 57.1202C95.4576 57.6326 96.1097 58.3468 96.591 59.2628C97.0723 60.1633 97.313 61.2036 97.313 62.3836C97.313 63.5635 97.0723 64.6115 96.591 65.5276C96.1097 66.4436 95.4576 67.1656 94.6347 67.6935C93.8118 68.2213 92.888 68.4853 91.8633 68.4853C91.3199 68.4853 90.7998 68.4077 90.303 68.2524C89.8217 68.0816 89.3792 67.8565 88.9755 67.577C88.5718 67.2975 88.2147 66.9715 87.9042 66.5989C87.5937 66.2107 87.3453 65.7915 87.1589 65.3413L87.5781 65.0385V72.2814C87.5781 72.4677 87.5083 72.6307 87.3685 72.7705C87.2443 72.9102 87.0813 72.9801 86.8795 72.9801C86.6776 72.9801 86.5069 72.9102 86.3671 72.7705C86.2429 72.6307 86.1808 72.4677 86.1808 72.2814V57.097C86.1808 56.8951 86.2429 56.7243 86.3671 56.5846C86.4913 56.4449 86.6621 56.375 86.8795 56.375C87.0813 56.375 87.2443 56.4449 87.3685 56.5846C87.5083 56.7243 87.5781 56.8951 87.5781 57.097V59.6122L87.2521 59.4259C87.4074 58.9446 87.6325 58.5176 87.9275 58.145C88.238 57.7568 88.5951 57.4308 88.9988 57.1668C89.4025 56.8874 89.8449 56.6778 90.3263 56.538C90.8076 56.3983 91.3122 56.3284 91.84 56.3284ZM91.7236 57.6326C90.8852 57.6326 90.1477 57.8422 89.5111 58.2614C88.8746 58.6651 88.37 59.224 87.9973 59.9382C87.6403 60.6369 87.4617 61.452 87.4617 62.3836C87.4617 63.2996 87.6403 64.1225 87.9973 64.8522C88.37 65.5819 88.8746 66.1564 89.5111 66.5756C90.1477 66.9793 90.8852 67.1811 91.7236 67.1811C92.5465 67.1811 93.2684 66.9793 93.8895 66.5756C94.526 66.1564 95.0306 65.5819 95.4033 64.8522C95.7759 64.1225 95.9622 63.2996 95.9622 62.3836C95.9622 61.4675 95.7759 60.6524 95.4033 59.9382C95.0306 59.224 94.526 58.6651 93.8895 58.2614C93.2684 57.8422 92.5465 57.6326 91.7236 57.6326ZM105.684 68.5552C104.489 68.5552 103.433 68.299 102.517 67.7866C101.601 67.2743 100.887 66.5601 100.374 65.644C99.8618 64.728 99.6057 63.6567 99.6057 62.4301C99.6057 61.1104 99.8618 59.9848 100.374 59.0532C100.902 58.1217 101.577 57.4075 102.4 56.9106C103.239 56.3983 104.124 56.1421 105.055 56.1421C105.738 56.1421 106.398 56.2663 107.035 56.5147C107.687 56.7476 108.261 57.1047 108.758 57.586C109.271 58.0518 109.674 58.6263 109.969 59.3094C110.28 59.9926 110.451 60.7844 110.482 61.6849C110.466 61.8712 110.388 62.0342 110.249 62.174C110.109 62.2982 109.946 62.3603 109.76 62.3603H100.421L100.141 61.1027H109.317L109.014 61.3821V60.9164C108.952 60.1866 108.719 59.5656 108.316 59.0532C107.912 58.5409 107.423 58.1527 106.849 57.8888C106.274 57.6248 105.676 57.4929 105.055 57.4929C104.59 57.4929 104.108 57.586 103.611 57.7723C103.13 57.9587 102.688 58.2536 102.284 58.6573C101.896 59.0455 101.577 59.5501 101.329 60.1711C101.081 60.7766 100.956 61.4986 100.956 62.337C100.956 63.253 101.143 64.0837 101.515 64.8289C101.888 65.5742 102.424 66.1641 103.122 66.5989C103.836 67.0336 104.683 67.251 105.661 67.251C106.204 67.251 106.693 67.1733 107.128 67.0181C107.563 66.8628 107.943 66.661 108.269 66.4126C108.595 66.1486 108.867 65.8769 109.084 65.5974C109.255 65.4577 109.426 65.3878 109.597 65.3878C109.752 65.3878 109.884 65.45 109.993 65.5742C110.117 65.6984 110.179 65.8381 110.179 65.9934C110.179 66.1797 110.101 66.3427 109.946 66.4824C109.48 67.0414 108.875 67.5304 108.129 67.9496C107.384 68.3533 106.569 68.5552 105.684 68.5552ZM115.01 67.6236C115.01 67.8099 114.94 67.9729 114.8 68.1127C114.66 68.2524 114.497 68.3223 114.311 68.3223C114.109 68.3223 113.938 68.2524 113.799 68.1127C113.674 67.9729 113.612 67.8099 113.612 67.6236V51.7871C113.612 51.6007 113.682 51.4377 113.822 51.298C113.962 51.1583 114.125 51.0884 114.311 51.0884C114.513 51.0884 114.676 51.1583 114.8 51.298C114.94 51.4377 115.01 51.6007 115.01 51.7871V67.6236ZM129.698 62.3603C129.698 63.5403 129.442 64.6038 128.93 65.5509C128.417 66.4824 127.719 67.2199 126.834 67.7633C125.949 68.2912 124.939 68.5552 123.806 68.5552C122.704 68.5552 121.702 68.2912 120.802 67.7633C119.917 67.2199 119.21 66.4824 118.682 65.5509C118.17 64.6038 117.914 63.5403 117.914 62.3603C117.914 61.1648 118.17 60.1012 118.682 59.1697C119.21 58.2381 119.917 57.5006 120.802 56.9572C121.702 56.4138 122.704 56.1421 123.806 56.1421C124.939 56.1421 125.949 56.4138 126.834 56.9572C127.719 57.5006 128.417 58.2381 128.93 59.1697C129.442 60.1012 129.698 61.1648 129.698 62.3603ZM128.301 62.3603C128.301 61.4132 128.107 60.5748 127.719 59.8451C127.33 59.0998 126.795 58.5176 126.112 58.0984C125.444 57.6637 124.676 57.4463 123.806 57.4463C122.968 57.4463 122.207 57.6637 121.524 58.0984C120.841 58.5176 120.297 59.0998 119.893 59.8451C119.505 60.5748 119.311 61.4132 119.311 62.3603C119.311 63.3074 119.505 64.1458 119.893 64.8755C120.297 65.6052 120.841 66.1874 121.524 66.6222C122.207 67.0414 122.968 67.251 123.806 67.251C124.676 67.251 125.444 67.0414 126.112 66.6222C126.795 66.1874 127.33 65.6052 127.719 64.8755C128.107 64.1458 128.301 63.3074 128.301 62.3603Z" fill="#4B90B3"/>
<path d="M17.8196 79.1058C18.4251 79.1058 18.9258 79.3037 19.3218 79.6996C19.7177 80.0955 19.9156 80.6079 19.9156 81.2367V96.0136C19.9156 96.6191 19.7177 97.1315 19.3218 97.5507C18.9258 97.9466 18.4251 98.1445 17.8196 98.1445C17.2141 98.1445 16.7134 97.9466 16.3175 97.5507C15.9216 97.1315 15.7236 96.6191 15.7236 96.0136V94.3018L16.4921 94.6162C16.4921 94.919 16.3291 95.2916 16.0031 95.7341C15.677 96.1533 15.2345 96.5725 14.6756 96.9917C14.1167 97.4109 13.4529 97.7719 12.6844 98.0747C11.9391 98.3541 11.124 98.4939 10.239 98.4939C8.6321 98.4939 7.17653 98.0863 5.87235 97.2712C4.56816 96.4328 3.5318 95.2916 2.76326 93.8477C2.01801 92.3805 1.64539 90.7037 1.64539 88.8173C1.64539 86.9076 2.01801 85.2308 2.76326 83.7868C3.5318 82.3196 4.55652 81.1785 5.83741 80.3634C7.11831 79.525 8.53894 79.1058 10.0993 79.1058C11.1007 79.1058 12.0206 79.2571 12.8591 79.5599C13.6975 79.8626 14.4194 80.2469 15.0249 80.7127C15.6537 81.1785 16.1312 81.6559 16.4572 82.145C16.8065 82.6108 16.9812 83.0067 16.9812 83.3327L15.7236 83.7868V81.2367C15.7236 80.6312 15.9216 80.1305 16.3175 79.7346C16.7134 79.3154 17.2141 79.1058 17.8196 79.1058ZM10.763 94.6512C11.7878 94.6512 12.6844 94.395 13.4529 93.8826C14.2215 93.3703 14.8153 92.6716 15.2345 91.7866C15.677 90.9016 15.8983 89.9119 15.8983 88.8173C15.8983 87.6994 15.677 86.698 15.2345 85.813C14.8153 84.928 14.2215 84.2293 13.4529 83.717C12.6844 83.2046 11.7878 82.9484 10.763 82.9484C9.76161 82.9484 8.87663 83.2046 8.10809 83.717C7.33955 84.2293 6.73404 84.928 6.29155 85.813C5.87235 86.698 5.66275 87.6994 5.66275 88.8173C5.66275 89.9119 5.87235 90.9016 6.29155 91.7866C6.73404 92.6716 7.33955 93.3703 8.10809 93.8826C8.87663 94.395 9.76161 94.6512 10.763 94.6512ZM66.0833 95.245C65.8504 94.919 65.7456 94.4998 65.7689 93.9874C65.7922 93.4751 66.0949 93.0326 66.6772 92.66C67.0498 92.4271 67.4457 92.3339 67.8649 92.3805C68.2841 92.4038 68.6917 92.6134 69.0876 93.0093C69.763 93.6847 70.4733 94.2087 71.2185 94.5813C71.9638 94.9539 72.8953 95.1402 74.0132 95.1402C74.3625 95.117 74.7468 95.0704 75.166 95.0005C75.5852 94.9074 75.9462 94.721 76.249 94.4416C76.575 94.1388 76.738 93.6847 76.738 93.0792C76.738 92.5668 76.5634 92.1593 76.214 91.8565C75.8647 91.5537 75.3989 91.2976 74.8167 91.088C74.2577 90.8784 73.6289 90.6804 72.9303 90.4941C72.2083 90.2845 71.4631 90.0516 70.6945 89.7954C69.9493 89.5392 69.2622 89.2132 68.6334 88.8173C68.0046 88.3981 67.4923 87.8508 67.0964 87.1754C66.7005 86.5 66.5025 85.65 66.5025 84.6253C66.5025 83.4608 66.8285 82.471 67.4806 81.6559C68.1327 80.8408 68.9711 80.212 69.9959 79.7695C71.0439 79.327 72.1384 79.1058 73.2796 79.1058C74.0016 79.1058 74.7585 79.1989 75.5503 79.3852C76.3421 79.5482 77.099 79.8277 77.821 80.2236C78.5429 80.5963 79.1484 81.097 79.6375 81.7258C79.8937 82.0751 80.0451 82.4943 80.0916 82.9834C80.1382 83.4724 79.917 83.9149 79.4279 84.3108C79.0786 84.5903 78.671 84.7184 78.2052 84.6951C77.7395 84.6485 77.3552 84.4855 77.0524 84.206C76.6565 83.6937 76.1209 83.2861 75.4455 82.9834C74.7934 82.6806 74.0365 82.5292 73.1748 82.5292C72.8255 82.5292 72.4412 82.5758 72.022 82.669C71.6261 82.7388 71.2767 82.9135 70.974 83.193C70.6712 83.4492 70.5199 83.8684 70.5199 84.4506C70.5199 84.9862 70.6945 85.4171 71.0439 85.7431C71.3932 86.0459 71.859 86.3021 72.4412 86.5117C73.0467 86.698 73.6872 86.8843 74.3625 87.0706C75.0612 87.2569 75.7715 87.4782 76.4935 87.7343C77.2154 87.9905 77.8792 88.3282 78.4847 88.7474C79.0902 89.1666 79.5793 89.7139 79.9519 90.3893C80.3245 91.0414 80.5108 91.8798 80.5108 92.9045C80.5108 94.0922 80.1615 95.1053 79.4628 95.9437C78.7642 96.7821 77.8908 97.4226 76.8428 97.8651C75.7948 98.2843 74.7235 98.4939 73.6289 98.4939C72.2549 98.4939 70.8808 98.261 69.5068 97.7952C68.1327 97.3061 66.9916 96.4561 66.0833 95.245Z" fill="#D91A1A"/>
<path d="M37.982 79.4551C38.5875 79.4551 39.0882 79.6647 39.4841 80.0839C39.8801 80.4798 40.078 80.9805 40.078 81.586V90.4592C40.078 92.9278 39.391 94.8841 38.0169 96.328C36.6429 97.7719 34.6633 98.4939 32.0782 98.4939C29.4931 98.4939 27.5136 97.7719 26.1395 96.328C24.7888 94.8841 24.1134 92.9278 24.1134 90.4592V81.586C24.1134 80.9805 24.3113 80.4798 24.7073 80.0839C25.1032 79.6647 25.6039 79.4551 26.2094 79.4551C26.8149 79.4551 27.3156 79.6647 27.7115 80.0839C28.1075 80.4798 28.3054 80.9805 28.3054 81.586V90.4592C28.3054 91.8798 28.6198 92.9394 29.2486 93.6381C29.8774 94.3135 30.8206 94.6512 32.0782 94.6512C33.3591 94.6512 34.314 94.3135 34.9428 93.6381C35.5716 92.9394 35.886 91.8798 35.886 90.4592V81.586C35.886 80.9805 36.0839 80.4798 36.4799 80.0839C36.8758 79.6647 37.3765 79.4551 37.982 79.4551ZM93.8353 79.1058C95.6984 79.1058 97.0724 79.5599 97.9574 80.4682C98.8424 81.3531 99.4246 82.506 99.7041 83.9266L99.1102 83.6122L99.3897 83.0532C99.6692 82.5176 100.1 81.947 100.682 81.3415C101.264 80.7127 101.963 80.1887 102.778 79.7695C103.617 79.327 104.548 79.1058 105.573 79.1058C107.25 79.1058 108.519 79.4667 109.381 80.1887C110.266 80.9107 110.871 81.8771 111.197 83.0882C111.523 84.2759 111.686 85.6034 111.686 87.0706V96.0136C111.686 96.6191 111.488 97.1315 111.092 97.5507C110.697 97.9466 110.196 98.1445 109.59 98.1445C108.985 98.1445 108.484 97.9466 108.088 97.5507C107.692 97.1315 107.494 96.6191 107.494 96.0136V87.0706C107.494 86.3021 107.401 85.615 107.215 85.0095C107.028 84.3807 106.691 83.88 106.202 83.5074C105.713 83.1348 105.014 82.9484 104.106 82.9484C103.221 82.9484 102.464 83.1348 101.835 83.5074C101.206 83.88 100.729 84.3807 100.403 85.0095C100.1 85.615 99.9486 86.3021 99.9486 87.0706V96.0136C99.9486 96.6191 99.7507 97.1315 99.3548 97.5507C98.9589 97.9466 98.4581 98.1445 97.8526 98.1445C97.2471 98.1445 96.7464 97.9466 96.3505 97.5507C95.9546 97.1315 95.7566 96.6191 95.7566 96.0136V87.0706C95.7566 86.3021 95.6635 85.615 95.4771 85.0095C95.2908 84.3807 94.9531 83.88 94.4641 83.5074C93.975 83.1348 93.2763 82.9484 92.3681 82.9484C91.4831 82.9484 90.7262 83.1348 90.0974 83.5074C89.4686 83.88 88.9911 84.3807 88.6651 85.0095C88.3623 85.615 88.211 86.3021 88.211 87.0706V96.0136C88.211 96.6191 88.013 97.1315 87.6171 97.5507C87.2212 97.9466 86.7205 98.1445 86.115 98.1445C85.5094 98.1445 85.0087 97.9466 84.6128 97.5507C84.2169 97.1315 84.0189 96.6191 84.0189 96.0136V81.586C84.0189 80.9805 84.2169 80.4798 84.6128 80.0839C85.0087 79.6647 85.5094 79.4551 86.115 79.4551C86.7205 79.4551 87.2212 79.6647 87.6171 80.0839C88.013 80.4798 88.211 80.9805 88.211 81.586V83.0882L87.687 82.9834C87.8966 82.5875 88.1877 82.1683 88.5603 81.7258C88.9329 81.26 89.3871 80.8291 89.9227 80.4332C90.4584 80.0373 91.0522 79.7229 91.7043 79.49C92.3564 79.2338 93.0667 79.1058 93.8353 79.1058Z" fill="#4B90B3"/>
<path d="M44.826 79.8044H53.1052C53.6642 79.8044 54.1299 79.9907 54.5026 80.3634C54.8752 80.736 55.0615 81.2018 55.0615 81.7607C55.0615 82.2963 54.8752 82.7505 54.5026 83.1231C54.1299 83.4724 53.6642 83.6471 53.1052 83.6471H44.826C44.267 83.6471 43.8013 83.4608 43.4286 83.0882C43.056 82.7156 42.8697 82.2498 42.8697 81.6908C42.8697 81.1552 43.056 80.7127 43.4286 80.3634C43.8013 79.9907 44.267 79.8044 44.826 79.8044ZM48.5639 75.4377C49.1694 75.4377 49.6584 75.6473 50.0311 76.0665C50.427 76.4624 50.6249 76.9632 50.6249 77.5687V93.1141C50.6249 93.4401 50.6832 93.708 50.7996 93.9176C50.9393 94.1272 51.114 94.2786 51.3236 94.3717C51.5565 94.4649 51.801 94.5114 52.0572 94.5114C52.3367 94.5114 52.5929 94.4649 52.8257 94.3717C53.0586 94.2553 53.3265 94.197 53.6292 94.197C53.9553 94.197 54.2464 94.3484 54.5026 94.6512C54.782 94.9539 54.9218 95.3731 54.9218 95.9088C54.9218 96.5609 54.5608 97.0965 53.8388 97.5157C53.1402 97.9349 52.3833 98.1445 51.5681 98.1445C51.0791 98.1445 50.5318 98.1096 49.9263 98.0397C49.344 97.9466 48.7851 97.7486 48.2495 97.4459C47.7371 97.1198 47.3063 96.6307 46.9569 95.9787C46.6076 95.3266 46.4329 94.4299 46.4329 93.2888V77.5687C46.4329 76.9632 46.6309 76.4624 47.0268 76.0665C47.446 75.6473 47.9583 75.4377 48.5639 75.4377ZM134.354 88.8173C134.354 90.727 133.923 92.4154 133.061 93.8826C132.223 95.3266 131.082 96.4561 129.638 97.2712C128.217 98.0863 126.622 98.4939 124.852 98.4939C123.082 98.4939 121.475 98.0863 120.031 97.2712C118.61 96.4561 117.469 95.3266 116.608 93.8826C115.769 92.4154 115.35 90.727 115.35 88.8173C115.35 86.9076 115.769 85.2308 116.608 83.7868C117.469 82.3196 118.61 81.1785 120.031 80.3634C121.475 79.525 123.082 79.1058 124.852 79.1058C126.622 79.1058 128.217 79.525 129.638 80.3634C131.082 81.1785 132.223 82.3196 133.061 83.7868C133.923 85.2308 134.354 86.9076 134.354 88.8173ZM130.162 88.8173C130.162 87.6295 129.917 86.6048 129.428 85.7431C128.962 84.8581 128.322 84.1711 127.507 83.682C126.715 83.193 125.83 82.9484 124.852 82.9484C123.874 82.9484 122.977 83.193 122.162 83.682C121.37 84.1711 120.73 84.8581 120.241 85.7431C119.775 86.6048 119.542 87.6295 119.542 88.8173C119.542 89.9817 119.775 91.0064 120.241 91.8914C120.73 92.7531 121.37 93.4285 122.162 93.9176C122.977 94.4066 123.874 94.6512 124.852 94.6512C125.83 94.6512 126.715 94.4066 127.507 93.9176C128.322 93.4285 128.962 92.7531 129.428 91.8914C129.917 91.0064 130.162 89.9817 130.162 88.8173Z" fill="#F9B710"/>
<path d="M62.8579 96.0136C62.8579 96.6191 62.66 97.1315 62.2641 97.5507C61.8682 97.9466 61.3675 98.1445 60.7619 98.1445C60.1564 98.1445 59.6557 97.9466 59.2598 97.5507C58.8639 97.1315 58.6659 96.6191 58.6659 96.0136V81.586C58.6659 80.9805 58.8639 80.4798 59.2598 80.0839C59.6557 79.6647 60.1564 79.4551 60.7619 79.4551C61.3675 79.4551 61.8682 79.6647 62.2641 80.0839C62.66 80.4798 62.8579 80.9805 62.8579 81.586V96.0136ZM60.727 77.1844C59.9352 77.1844 59.3762 77.0563 59.0502 76.8001C58.7241 76.544 58.5611 76.0898 58.5611 75.4377V74.774C58.5611 74.0986 58.7358 73.6445 59.0851 73.4116C59.4578 73.1554 60.0167 73.0273 60.7619 73.0273C61.5771 73.0273 62.1476 73.1554 62.4737 73.4116C62.7997 73.6678 62.9627 74.1219 62.9627 74.774V75.4377C62.9627 76.1131 62.7881 76.5789 62.4387 76.8351C62.0894 77.068 61.5188 77.1844 60.727 77.1844Z" fill="#FA8522"/>
</svg>
