<svg width="105" height="46" viewBox="0 0 105 46" fill="none" xmlns="http://www.w3.org/2000/svg">
<mask id="mask0_221_300" style="mask-type:alpha" maskUnits="userSpaceOnUse" x="0" y="0" width="105" height="46">
<path d="M39.7995 6.68457C30.899 -2.22819 16.4684 -2.22819 7.56794 6.68457C-1.33254 15.5973 -1.33254 30.0478 7.56794 38.9605C16.4684 47.8733 30.899 47.8733 39.7995 38.9605L46.0897 32.6616C46.9935 31.7566 46.9935 30.2906 46.0898 29.3856C45.1842 28.4789 43.7148 28.4789 42.8093 29.3856L36.5235 35.6801C29.4323 42.7811 17.9351 42.7811 10.8439 35.6801C3.75266 28.5791 3.75266 17.0661 10.8439 9.96504C17.9351 2.86403 29.4323 2.86403 36.5235 9.96504L49.3625 22.8218L49.3632 22.8211L52.6386 26.1011L55.9151 22.82L52.6405 19.5408L52.6393 19.5421L39.7995 6.68457Z" fill="black"/>
<path d="M59.1897 12.9827C58.2859 13.8877 58.2859 15.3536 59.1897 16.2586C60.0952 17.1654 61.5646 17.1654 62.4701 16.2586L68.755 9.96504C75.8463 2.86403 87.3434 2.86403 94.4347 9.96504C101.526 17.0661 101.526 28.5791 94.4347 35.6801C87.3434 42.7811 75.8463 42.7811 68.755 35.6801L55.9156 22.8229L52.6397 26.1033L65.4791 38.9605C74.3796 47.8733 88.8101 47.8733 97.7106 38.9605C106.611 30.0478 106.611 15.5973 97.7106 6.68457C88.8101 -2.22819 74.3796 -2.22819 65.4791 6.68457L59.1897 12.9827Z" fill="black"/>
</mask>
<g mask="url(#mask0_221_300)">
<path d="M94.2197 -18.6732L115.01 2.14555L31.8496 85.4203L11.0596 64.6016L94.2197 -18.6732Z" fill="#F9B710"/>
<path d="M73.4297 -39.4918L94.2197 -18.6732L11.0596 64.6016L-9.73043 43.783L73.4297 -39.4918Z" fill="#4B90B3"/>
<path d="M115.01 2.14555L135.8 22.9642L52.6396 106.239L31.8496 85.4203L115.01 2.14555Z" fill="#FA8522"/>
<path d="M52.6396 -60.3105L73.4297 -39.4918L-9.73043 43.783L-30.5204 22.9643L52.6396 -60.3105Z" fill="#D91A1A"/>
</g>
</svg>
